<?xml version="1.0" standalone="no"?><!DOCTYPE svg PUBLIC "-//W3C//DTD SVG 1.1//EN" "http://www.w3.org/Graphics/SVG/1.1/DTD/svg11.dtd"><svg class="icon" width="200px" height="200.00px" viewBox="0 0 1024 1024" version="1.1" xmlns="http://www.w3.org/2000/svg"><path d="M843.653 994.397h-663.306c-60.948 0-110.551-49.605-110.551-110.551v-743.692c0-60.948 49.605-110.551 110.551-110.551h663.306c60.917 0 110.551 49.605 110.551 110.551v743.692c0 60.974-49.578 110.551-110.551 110.551zM180.347 89.906c-27.726 0-50.247 22.523-50.247 50.247v743.692c0 27.726 22.523 50.247 50.247 50.247h663.306c27.697 0 50.222-22.523 50.222-50.247v-743.692c0-27.726-22.523-50.247-50.222-50.247h-663.306z" fill="#e6e6e6" /><path d="M326.078 290.897h381.955c16.596 0 30.163 13.487 30.163 30.139 0 16.623-13.568 30.163-30.163 30.163h-381.955c-16.653 0-30.163-13.514-30.163-30.163 0.025-16.623 13.541-30.139 30.163-30.139z" fill="#e6e6e6" /><path d="M326.078 471.78h381.955c16.596 0 30.163 13.487 30.163 30.163 0 16.623-13.568 30.139-30.163 30.139h-381.955c-16.653 0-30.163-13.514-30.163-30.139 0.025-16.677 13.541-30.163 30.163-30.163z" fill="#e6e6e6" /><path d="M326.078 652.688h381.955c16.596 0 30.163 13.487 30.163 30.163 0 16.623-13.568 30.139-30.163 30.139h-381.955c-16.653 0-30.163-13.514-30.163-30.139 0.025-16.677 13.541-30.163 30.163-30.163z" fill="#e6e6e6" /></svg>