<?xml version="1.0" standalone="no"?><!DOCTYPE svg PUBLIC "-//W3C//DTD SVG 1.1//EN" "http://www.w3.org/Graphics/SVG/1.1/DTD/svg11.dtd"><svg class="icon" width="200px" height="200.00px" viewBox="0 0 1024 1024" version="1.1" xmlns="http://www.w3.org/2000/svg"><path d="M602.023316 270.405593l-10.896164-10.896164c-6.01704-6.019087-15.774265-6.019087-21.792329 0L347.428827 481.415424c-1.892093 0.740874-3.668553 1.868557-5.197372 3.397377l-10.747785 10.747785c-1.673106 1.673106-2.857071 3.643993-3.586688 5.737678-4.212952 6.010901-3.648087 14.349823 1.722224 19.71911l10.896164 10.896164c2.860141 2.861164 6.566556 4.345981 10.313903 4.486174l217.08827 217.08827c5.936199 5.934153 15.559371 5.934153 21.493523 0l10.747785-10.747785c5.934153-5.934153 5.934153-15.557324 0-21.493523L386.566196 507.654019l215.45712-215.45712C608.042403 286.179858 608.042403 276.422633 602.023316 270.405593zM512.050142 64.404846c-246.805082 0-446.877817 200.073758-446.877817 446.877817s200.073758 446.877817 446.877817 446.877817 446.877817-200.073758 446.877817-446.877817S758.854201 64.404846 512.050142 64.404846zM512.050142 922.04391c-226.856751 0-410.761248-183.904497-410.761248-410.761248S285.193391 100.520391 512.050142 100.520391s410.762271 183.90552 410.762271 410.762271S738.906893 922.04391 512.050142 922.04391z" fill="#515151" /></svg>