<?xml version="1.0" standalone="no"?><!DOCTYPE svg PUBLIC "-//W3C//DTD SVG 1.1//EN" "http://www.w3.org/Graphics/SVG/1.1/DTD/svg11.dtd"><svg class="icon" width="200px" height="200.00px" viewBox="0 0 1024 1024" version="1.1" xmlns="http://www.w3.org/2000/svg"><path d="M992 512c-2.448-132.877-59.092-252.062-148.688-336.747-61.687-59.39-143.98-103.311-235.668-120.685 33.533 4.051-24.699-7.674-85.67-7.674-3.518 0-7.027 0.039-10.526 0.116-128.2 2.44-243.626 57.386-325.607 144.242-57.36 59.687-99.832 139.401-116.612 228.196 3.967-32.594-7.34 23.694-7.34 82.624 0 3.491 0.039 6.974 0.119 10.447 1.326 63.865 16.048 124.484 41.473 179.117 33.037 73.631 91.524 140.841 164.48 187.38-8.508 3.824 68.519 44.823 154.315 60.986-31.349-3.776 22.981 7.112 79.853 7.112 3.471 0 6.931-0.040 10.382-0.121 56.397-1.191 112.887-13.641 164.547-36.471 79.67-35.74 144.603-92.346 189.534-162.926 3.599 8.354 43.155-66.070 58.727-148.955-9.521 44.161-1.211 11.431 3.139-21.779 1.058 0.067 2.293 0.104 3.538 0.104 33.137 0 60-26.863 60-60 0-1.758-0.076-3.499-0.224-5.218l0.226 0.224zM896.66 671.33c-21.99 49.89-53.88 95.070-92.97 132.36s-85.32 66.75-135.24 86.040c-43.481 17.336-93.871 27.389-146.609 27.389-3.46 0-6.91-0.043-10.35-0.129-111.632-2.421-212.050-50.653-283.146-126.657-49.295-51.621-85.975-120.908-100.376-198.038 3.558 28.605-6.070-19.818-6.070-70.489 0-57.059 12.208-111.266 34.156-160.153 19.496-43.754 49.166-85.634 85.496-120.164s79.26-61.74 125.52-79.56c40.088-15.893 86.531-25.108 135.128-25.108 54.982 0 107.208 11.796 154.287 32.994 42.025 18.784 82.225 47.314 115.405 82.264s59.25 76.2 76.29 120.63c17.1 44.43 25.11 91.92 23.82 139.23h0.21c-0.133 1.498-0.209 3.241-0.209 5.001 0 30.854 23.288 56.269 53.246 59.624-9.484 53.661-28.211 101.479-54.455 144.182z" fill="#1379be" /></svg>