<?xml version="1.0" standalone="no"?><!DOCTYPE svg PUBLIC "-//W3C//DTD SVG 1.1//EN" "http://www.w3.org/Graphics/SVG/1.1/DTD/svg11.dtd"><svg class="icon" width="200px" height="199.80px" viewBox="0 0 1025 1024" version="1.1" xmlns="http://www.w3.org/2000/svg"><path d="M896.185 1024H128.24C57.647 1024 0.249 966.602 0.249 896.01V128.063C0.249 57.472 57.647 0.074 128.239 0.074h767.946c70.585 0 127.99 57.398 127.99 127.99v767.945c0 70.593-57.398 127.991-127.99 127.991z m63.995-895.936c0-35.274-28.728-63.995-63.995-63.995H128.24c-35.275 0-63.996 28.72-63.996 63.995v767.945c0 35.282 28.721 63.996 63.996 63.996h767.945c35.267 0 63.995-28.714 63.995-63.996V128.064z m-126.162 691.15H541.43c-20.18-0.014-36.533-16.382-36.533-36.568s16.354-36.554 36.533-36.569h292.587c20.193 0 36.569 16.376 36.569 36.569s-16.376 36.569-36.57 36.569z m0-160.902H541.43c-20.18-0.015-36.533-16.383-36.533-36.569s16.354-36.554 36.533-36.569h292.587c20.193 0 36.569 16.376 36.569 36.569s-16.376 36.569-36.57 36.569z m0-255.982H541.43c-20.18-0.015-36.533-16.383-36.533-36.569s16.354-36.554 36.533-36.569h292.587c20.193 0 36.569 16.369 36.569 36.57 0 20.193-16.376 36.568-36.57 36.568z m0-146.275H541.43c-20.18-0.015-36.533-16.383-36.533-36.569s16.354-36.554 36.533-36.569h292.587c20.193 0 36.569 16.376 36.569 36.569s-16.376 36.569-36.57 36.569z m-409.571 14.627L279.883 385.604l-0.278-0.344c-10.554 8.498-25.525 9.94-37.468 1.975l-95.993-64.2c-14.716-9.852-18.687-29.753-8.872-44.52 6.158-9.288 16.31-14.298 26.659-14.298 6.092 0 12.25 1.748 17.72 5.39l76.525 51.16L380.564 226.8s6.37-7.314 21.942-7.314c16.156 0 29.255 13.099 29.255 29.255 0 15.564-7.314 21.941-7.314 21.941zM248.456 544.95c79.405 0 143.993 64.587 143.993 143.993 0 79.39-64.588 143.986-143.993 143.986-79.398 0-143.986-64.588-143.986-143.986 0-79.406 64.58-143.993 143.986-143.993z m0 223.984c44.124 0 79.998-35.875 79.998-79.991 0-44.124-35.874-79.998-79.998-79.998-44.117 0-79.99 35.874-79.99 79.998 0 44.11 35.866 79.99 79.99 79.99z" fill="#e6e6e6" /></svg>