<?xml version="1.0" standalone="no"?><!DOCTYPE svg PUBLIC "-//W3C//DTD SVG 1.1//EN" "http://www.w3.org/Graphics/SVG/1.1/DTD/svg11.dtd"><svg class="icon" width="200px" height="200.00px" viewBox="0 0 1024 1024" version="1.1" xmlns="http://www.w3.org/2000/svg"><path d="M597.4528 645.7856l-170.9056 0c-24.704 0-44.8-20.096-44.8-44.8l0-177.9456c0-24.704 20.096-44.8 44.8-44.8l170.9056 0c24.704 0 44.8 20.096 44.8 44.8l0 177.9456C642.2528 625.664 622.1568 645.7856 597.4528 645.7856zM426.5472 416.6144c-3.5328 0-6.4 2.8672-6.4 6.4l0 177.9456c0 3.5328 2.8672 6.4 6.4 6.4l170.9056 0c3.5328 0 6.4-2.8672 6.4-6.4l0-177.9456c0-3.5328-2.8672-6.4-6.4-6.4L426.5472 416.6144z" fill="#e6e6e6" /><path d="M597.4528 316.8256l-170.9056 0c-24.704 0-44.8-20.096-44.8-44.8L381.7472 94.08c0-24.704 20.096-44.8 44.8-44.8l170.9056 0c24.704 0 44.8 20.096 44.8 44.8l0 177.9456C642.2528 296.7296 622.1568 316.8256 597.4528 316.8256zM426.5472 87.68c-3.5328 0-6.4 2.8672-6.4 6.4l0 177.9456c0 3.5328 2.8672 6.4 6.4 6.4l170.9056 0c3.5328 0 6.4-2.8672 6.4-6.4L603.8528 94.08c0-3.5328-2.8672-6.4-6.4-6.4L426.5472 87.68z" fill="#e6e6e6" /><path d="M597.4528 974.72l-170.9056 0c-24.704 0-44.8-20.096-44.8-44.8l0-177.9456c0-24.704 20.096-44.8 44.8-44.8l170.9056 0c24.704 0 44.8 20.096 44.8 44.8l0 177.9456C642.2528 954.624 622.1568 974.72 597.4528 974.72zM426.5472 745.5744c-3.5328 0-6.4 2.8672-6.4 6.4l0 177.9456c0 3.5328 2.8672 6.4 6.4 6.4l170.9056 0c3.5328 0 6.4-2.8672 6.4-6.4l0-177.9456c0-3.5328-2.8672-6.4-6.4-6.4L426.5472 745.5744z" fill="#e6e6e6" /><path d="M264.96 645.7856 94.08 645.7856c-24.704 0-44.8-20.096-44.8-44.8l0-177.9456c0-24.704 20.096-44.8 44.8-44.8l170.88 0c24.704 0 44.8 20.096 44.8 44.8l0 177.9456C309.76 625.664 289.6384 645.7856 264.96 645.7856zM94.08 416.6144c-3.5328 0-6.4 2.8672-6.4 6.4l0 177.9456c0 3.5328 2.8672 6.4 6.4 6.4l170.88 0c3.5328 0 6.4-2.8672 6.4-6.4l0-177.9456c0-3.5328-2.8672-6.4-6.4-6.4L94.08 416.6144z" fill="#e6e6e6" /><path d="M264.96 316.8256 94.08 316.8256c-24.704 0-44.8-20.096-44.8-44.8L49.28 94.08c0-24.704 20.096-44.8 44.8-44.8l170.88 0c24.704 0 44.8 20.096 44.8 44.8l0 177.9456C309.76 296.7296 289.6384 316.8256 264.96 316.8256zM94.08 87.68c-3.5328 0-6.4 2.8672-6.4 6.4l0 177.9456c0 3.5328 2.8672 6.4 6.4 6.4l170.88 0c3.5328 0 6.4-2.8672 6.4-6.4L271.36 94.08c0-3.5328-2.8672-6.4-6.4-6.4L94.08 87.68z" fill="#e6e6e6" /><path d="M264.96 974.72 94.08 974.72c-24.704 0-44.8-20.096-44.8-44.8l0-177.9456c0-24.704 20.096-44.8 44.8-44.8l170.88 0c24.704 0 44.8 20.096 44.8 44.8l0 177.9456C309.76 954.624 289.6384 974.72 264.96 974.72zM94.08 745.5744c-3.5328 0-6.4 2.8672-6.4 6.4l0 177.9456c0 3.5328 2.8672 6.4 6.4 6.4l170.88 0c3.5328 0 6.4-2.8672 6.4-6.4l0-177.9456c0-3.5328-2.8672-6.4-6.4-6.4L94.08 745.5744z" fill="#e6e6e6" /><path d="M929.92 645.7856 759.04 645.7856c-24.704 0-44.8-20.096-44.8-44.8l0-177.9456c0-24.704 20.096-44.8 44.8-44.8l170.88 0c24.704 0 44.8 20.096 44.8 44.8l0 177.9456C974.72 625.664 954.624 645.7856 929.92 645.7856zM759.04 416.6144c-3.5328 0-6.4 2.8672-6.4 6.4l0 177.9456c0 3.5328 2.8672 6.4 6.4 6.4l170.88 0c3.5328 0 6.4-2.8672 6.4-6.4l0-177.9456c0-3.5328-2.8672-6.4-6.4-6.4L759.04 416.6144z" fill="#e6e6e6" /><path d="M929.92 316.8256 759.04 316.8256c-24.704 0-44.8-20.096-44.8-44.8L714.24 94.08c0-24.704 20.096-44.8 44.8-44.8l170.88 0c24.704 0 44.8 20.096 44.8 44.8l0 177.9456C974.72 296.7296 954.624 316.8256 929.92 316.8256zM759.04 87.68c-3.5328 0-6.4 2.8672-6.4 6.4l0 177.9456c0 3.5328 2.8672 6.4 6.4 6.4l170.88 0c3.5328 0 6.4-2.8672 6.4-6.4L936.32 94.08c0-3.5328-2.8672-6.4-6.4-6.4L759.04 87.68z" fill="#e6e6e6" /><path d="M929.92 974.72 759.04 974.72c-24.704 0-44.8-20.096-44.8-44.8l0-177.9456c0-24.704 20.096-44.8 44.8-44.8l170.88 0c24.704 0 44.8 20.096 44.8 44.8l0 177.9456C974.72 954.624 954.624 974.72 929.92 974.72zM759.04 745.5744c-3.5328 0-6.4 2.8672-6.4 6.4l0 177.9456c0 3.5328 2.8672 6.4 6.4 6.4l170.88 0c3.5328 0 6.4-2.8672 6.4-6.4l0-177.9456c0-3.5328-2.8672-6.4-6.4-6.4L759.04 745.5744z" fill="#e6e6e6" /></svg>