<?xml version="1.0" standalone="no"?><!DOCTYPE svg PUBLIC "-//W3C//DTD SVG 1.1//EN" "http://www.w3.org/Graphics/SVG/1.1/DTD/svg11.dtd"><svg class="icon" width="200px" height="200.00px" viewBox="0 0 1024 1024" version="1.1" xmlns="http://www.w3.org/2000/svg"><path d="M419.9 796.2c6.1 0 12.2-2.3 16.9-7l259-259c9.3-9.3 9.3-24.5 0-33.8L439 239.5c-9.3-9.3-24.5-9.3-33.8 0-9.3 9.3-9.3 24.5 0 33.8l240 240L403 755.4c-9.3 9.3-9.3 24.5 0 33.8 4.7 4.7 10.8 7 16.9 7z" fill="#515151" /><path d="M330.9 941.4c-55.2-23.3-104.8-56.8-147.3-99.3-42.6-42.6-76-92.1-99.3-147.3-24.2-57.2-36.4-117.9-36.4-180.4S60.2 391.1 84.3 334c23.3-55.2 56.8-104.8 99.3-147.3 42.6-42.6 92.1-76 147.3-99.3C388.1 63.2 448.8 51 511.3 51c62.6 0 123.3 12.3 180.4 36.4 55.2 23.3 104.8 56.8 147.3 99.3 42.6 42.6 76 92.1 99.3 147.3 24.2 57.2 36.4 117.9 36.4 180.4s-12.3 123.3-36.4 180.4C915 750 881.6 799.5 839.1 842.1c-42.6 42.6-92.1 76-147.3 99.3-57.2 24.2-117.9 36.4-180.4 36.4-62.6 0-123.3-12.2-180.5-36.4z m-246.5-427c0 235.4 191.5 426.9 426.9 426.9s426.9-191.5 426.9-426.9c0-235.4-191.5-426.9-426.9-426.9S84.4 278.9 84.4 514.4z" fill="#515151" /></svg>