<?xml version="1.0" standalone="no"?><!DOCTYPE svg PUBLIC "-//W3C//DTD SVG 1.1//EN" "http://www.w3.org/Graphics/SVG/1.1/DTD/svg11.dtd"><svg class="icon" width="200px" height="200.00px" viewBox="0 0 1024 1024" version="1.1" xmlns="http://www.w3.org/2000/svg"><path d="M989.732 307.329c18.536 0 33.983 15.448 33.983 33.983v341.378c0 18.536-15.448 33.983-33.983 33.983-18.536 0-33.983-15.448-33.983-33.983v-47.113l-358.369 43.252v3.862c0 56.382-45.955 102.337-102.336 102.336h-67.967c-18.536 0-33.983-15.448-33.983-33.983v-187.68l-392.74-51.361 392.74-51.361v-187.68c0-18.536 15.448-33.983 33.983-33.983h67.967c56.382 0 102.337 45.955 102.336 102.336v3.862l358.369 43.252v-47.113c0-18.536 15.448-33.983 33.983-33.983zM529.027 405.802v-64.105c0-18.536-15.448-33.983-33.983-33.983h-33.984v409.346h33.984c18.536 0 33.983-15.448 33.983-33.983v-64.105l426.723-52.134-0.386-58.312v-51.747l-426.337-50.975z" fill="#e6e6e6" /></svg>