<?xml version="1.0" standalone="no"?><!DOCTYPE svg PUBLIC "-//W3C//DTD SVG 1.1//EN" "http://www.w3.org/Graphics/SVG/1.1/DTD/svg11.dtd"><svg class="icon" width="200px" height="200.00px" viewBox="0 0 1024 1024" version="1.1" xmlns="http://www.w3.org/2000/svg"><path d="M645.229351 959.751003l-0.00307 0c-16.282848-0.001023-32.107255-7.132444-42.330084-19.074428-13.928221-16.169261-58.055231-58.217936-94.174869-58.217936-35.869952 0-80.678484 42.291199-93.548606 57.106626-10.19827 11.740392-25.913183 18.749016-42.039465 18.749016-7.679913 0-14.927991-1.560542-21.544689-4.640694l-1.157359-0.538259-109.790522-65.014736-1.089821-0.807389c-19.98824-14.817474-27.594475-43.797505-17.691941-67.410296 0.074701-0.183172 10.125615-24.740474 10.125615-47.13246 0-67.956741-52.208059-123.244952-116.378567-123.244952l-3.89061 0c-0.236384 0.005117-0.472767 0.00921-0.707105 0.00921-18.382673 0-33.348526-17.291828-38.130436-44.053332-0.382717-2.14178-9.369392-52.905954-9.369392-92.900853 0-39.993876 8.984628-90.760097 9.367345-92.900853 4.841262-27.102265 20.134573-44.512796 38.838563-44.045145l3.891633 0c64.172555 0 116.378567-55.287187 116.378567-123.244952 0-22.387893-10.045797-46.939055-10.148128-47.184649-9.890254-23.591301-2.234901-52.567239 17.835204-67.338664l1.137916-0.837064 115.868961-67.39597 1.205455-0.543376c6.5246-2.945075 13.670348-4.439102 21.240767-4.439102 16.087397 0 31.836079 6.856152 42.128493 18.342764 13.713326 15.207353 57.0616 54.754045 92.145653 54.754045 34.755572 0 77.837786-38.765909 91.505064-53.704133 10.233062-11.253298 25.869181-17.990746 41.800012-17.990746 7.722892 0 15.001669 1.547239 21.63167 4.598738l1.173732 0.540306 111.908766 65.841567 1.106194 0.817622c20.020986 14.799054 27.646664 43.778062 17.735943 67.409273-0.073678 0.181125-10.124592 24.739451-10.124592 47.130414 0 67.957765 52.207036 123.244952 116.378567 123.244952l3.89061 0c18.679431-0.440022 33.996279 16.939811 38.838563 44.043099 0.381693 2.142803 9.368368 52.906977 9.368368 92.901877 0 39.994899-8.986675 90.760097-9.369392 92.900853-4.843308 27.104311-20.155039 44.449351-38.838563 44.044122l-3.889587 0c-64.171532 0-116.378567 55.288211-116.378567 123.244952 0 22.387893 10.044774 46.938032 10.147104 47.183626 9.885138 23.575952 2.248204 52.553936-17.793248 67.341734l-1.12052 0.826831-113.797789 66.607-1.188058 0.542352C659.871839 958.24572 652.752698 959.751003 645.229351 959.751003L645.229351 959.751003zM641.772622 902.974905c0.508583 0.353041 1.944282 0.951675 3.454682 0.951675 0.062422 0 0.118704-0.001023 0.171915-0.00307l106.321514-62.231343c-2.565429-6.313799-14.302751-36.954657-14.302751-68.918649 0-95.589079 71.096245-173.925215 160.227238-178.828898 1.283226-7.499811 8.248871-49.696866 8.248871-81.362053 0-31.658024-6.962575-73.840752-8.247848-81.362053-89.130993-4.903683-160.228261-83.239819-160.228261-178.828898 0-32.007995 11.772115-62.691831 14.3181-68.954465l-104.595196-61.541635c-0.12075-0.00921-0.267083-0.01535-0.436952-0.01535-1.782599 0-3.449565 0.687662-4.002151 1.080611-1.753947 1.910513-16.918321 18.192338-38.695301 34.416857-32.237215 24.01802-62.721507 36.195364-90.607624 36.195364-28.158317 0-58.887178-12.417821-91.332125-36.909631-21.911032-16.539698-37.142945-33.131585-38.902008-35.07689-0.557702-0.403183-2.241041-1.111311-4.03899-1.111311-0.143263 0-0.268106 0.004093-0.37453 0.01228L270.413779 183.50469c2.595105 6.393617 14.289448 36.980239 14.289448 68.88488 0 95.589079-71.098291 173.925215-160.229285 178.828898-1.284249 7.507998-8.246825 49.699935-8.246825 81.362053 0 31.658024 6.962575 73.840752 8.248871 81.362053 89.130993 4.903683 160.227238 83.239819 160.227238 178.828898 0 32.069393-11.81714 62.808488-14.33345 68.991304l102.537328 60.718897c0.067538 0.00307 0.143263 0.005117 0.227174 0.005117 1.499144 0 2.920516-0.581238 3.423983-0.927115 1.916653-2.181689 17.234523-19.34765 39.291888-36.468586 32.881898-25.51921 64.12753-38.45994 92.871177-38.45994 29.017894 0 60.500932 13.187347 93.575212 39.194674C624.481817 883.273191 639.858016 900.762517 641.772622 902.974905L641.772622 902.974905zM509.09995 676.090525c-85.460394 0-154.98791-73.628928-154.98791-164.130128s69.527516-164.130128 154.98791-164.130128 154.98791 73.628928 154.98791 164.130128C664.086837 602.460574 594.560344 676.090525 509.09995 676.090525L509.09995 676.090525zM509.09995 403.655716c-56.392358 0-102.270245 48.584532-102.270245 108.303658s45.877887 108.303658 102.270245 108.303658c56.392358 0 102.270245-48.584532 102.270245-108.303658S565.493332 403.655716 509.09995 403.655716L509.09995 403.655716z" fill="#e6e6e6" /></svg>